# xmcd
#
# Track frame offsets:
#	182
#	24605
#	42605
#	69015
#	89405
#	110435
#	143480
#	161940
#	187580
#	204030
#	224765
#	247010
#	266280
#
# Disc length: 3702 seconds
#
# Revision: 0
# Processed by: cddbd v1.5.2PL0 Copyright (c) Steve Scherf et al.
# Submitted via: dBpowerAMP V4.0
#
DISCID=b20e740d
DTITLE=Zucchero - Diamante
DYEAR=1900
DGENRE=
TTITLE0=Overdose
TTITLE1=Il Mare
TTITLE2=Diamante
TTITLE3=Senza una dona
TTITLE4=Come back the sun
TTITLE5=Mama
TTITLE6=Diavolo in me
TTITLE7=Dunes of mercy
TTITLE8=Donne
TTITLE9=Wonderfull world
TTITLE10=Solo una sana e consapevole
TTITLE11=Miserere
TTITLE12=You've chosen me
EXTD=
EXTT0=
EXTT1=
EXTT2=
EXTT3=
EXTT4=
EXTT5=
EXTT6=
EXTT7=
EXTT8=
EXTT9=
EXTT10=
EXTT11=
EXTT12=
PLAYORDER=
